<svg version="1.1" xmlns="http://www.w3.org/2000/svg" xmlns:xlink="http://www.w3.org/1999/xlink" width="500" height="500"><defs><clipPath id="clip-1"><rect x="80.20833" y="61.26444" transform="scale(1.92,2.03189)" width="100" height="100"></rect></clipPath></defs><g data-paper-data="{&quot;description&quot;:&quot;Logo for manaba download router\n===============================\n\nThis logo was generated by MarkMaker at http://emblemmatic.org/markmaker/ and may be composed of elements designed by others.\n\nThe font is Martel Sans Light designed by Dan Reynolds and Mathieu Réguer and released under the OFL license via Google Fonts: https://www.google.com/fonts/specimen/Martel%20Sans. The font includes this copyright statement: Copyright (c) 2014 Dan Reynolds. Copyright (c) 2014 Mathieu Reguer.\n\nThe symbol is 'leaf' designed by Arthy.P and released into the public domain at the Noun Project: https://thenounproject.com/term/leaf/5079.\n\nMarkMaker uses semantic data from the Princeton University WordNet database http://wordnet.princeton.edu and font descriptions from Google Fonts https://www.google.com/fonts.&quot;}" fill="none" fill-rule="nonzero" stroke="none" stroke-width="none" stroke-linecap="butt" stroke-linejoin="miter" stroke-miterlimit="10" stroke-dasharray="" stroke-dashoffset="0" font-family="none" font-weight="none" font-size="none" text-anchor="none" style="mix-blend-mode: normal"><path d="M80.67581,226.07713c0,-93.51517 75.80902,-169.32419 169.32419,-169.32419c93.51517,0 169.32419,75.80902 169.32419,169.32419c0,93.51517 -75.80902,169.32419 -169.32419,169.32419c-93.51517,0 -169.32419,-75.80902 -169.32419,-169.32419z" fill="#305454" stroke-width="0"></path><g data-paper-data="{&quot;elementType&quot;:&quot;logo&quot;}" fill="#305454" stroke-width="1"><g data-paper-data="{&quot;elementType&quot;:&quot;text&quot;}"><g data-paper-data="{&quot;baseline&quot;:80,&quot;elementType&quot;:&quot;row&quot;}"><g data-paper-data="{&quot;baselineProportion&quot;:0.9791921664626683,&quot;fontSize&quot;:100,&quot;baseline&quot;:80,&quot;elementType&quot;:&quot;word&quot;}"><path d="M72.03872,417.77391v24.78075h-2.65153v-9.00124l0.10331,-11.07845l-7.61025,11.77085h-1.72178l-7.61025,-11.8073l0.10331,11.11489v9.00124h-2.65153v-24.78075h2.34161l8.67775,13.41076l8.67775,-13.41076z" data-paper-data="{&quot;elementType&quot;:&quot;letter&quot;,&quot;baseline&quot;:68,&quot;baselineProportion&quot;:1,&quot;fontSize&quot;:100}"></path><path d="M94.00857,442.55466c-0.8035,0.31583 -1.57255,0.4859 -2.30718,0.51019c-1.92839,0 -2.96145,-0.91106 -3.0992,-2.73317c-2.24979,1.84641 -4.27,2.76961 -6.06065,2.76961c-1.42333,0 -2.5884,-0.43123 -3.4952,-1.2937c-0.9068,-0.86247 -1.3602,-1.96181 -1.3602,-3.29803c0,-1.19045 0.31566,-2.18654 0.94698,-2.98827c0.63132,-0.80173 1.50942,-1.46984 2.63432,-2.00433c1.12489,-0.53449 2.62858,-1.08112 4.51105,-1.6399l2.78928,-0.83817v-1.6399c0,-3.03686 -1.05602,-4.55528 -3.16807,-4.55528c-1.17081,0 -2.23257,0.2551 -3.18528,0.76529c-0.95272,0.51019 -2.02596,1.48199 -3.21972,2.91538l-1.27411,-1.6399c2.38753,-2.8425 5.06202,-4.26375 8.02347,-4.26375c1.95135,0 3.34598,0.52841 4.18391,1.58524c0.83793,1.05683 1.2569,2.82428 1.2569,5.30235v9.9123c0,0.53449 0.08609,0.91713 0.25827,1.14793c0.17218,0.2308 0.4534,0.3462 0.84367,0.3462c0.41323,0 0.9068,-0.13362 1.48073,-0.40087l0.24105,2.04077M80.26881,438.3638c0,0.89891 0.24105,1.5488 0.72315,1.94966c0.4821,0.40087 1.12489,0.6013 1.92839,0.6013c0.84941,0 1.70456,-0.22473 2.56544,-0.67418c0.86089,-0.44945 1.88821,-1.13578 3.08198,-2.05899v-5.21125l-2.16944,0.6924c-2.27274,0.70455 -3.86252,1.39695 -4.76932,2.07721c-0.9068,0.68026 -1.3602,1.55487 -1.3602,2.62384z" data-paper-data="{&quot;elementType&quot;:&quot;letter&quot;,&quot;baseline&quot;:54.7,&quot;baselineProportion&quot;:0.9733096085409253,&quot;fontSize&quot;:100}"></path><path d="M106.99076,422.62074c1.95135,0 3.28859,0.53449 4.01174,1.60346c0.72315,1.06897 1.08472,2.6117 1.08472,4.62817v13.70229h-2.58266v-13.48364c0,-1.48199 -0.23531,-2.55703 -0.70593,-3.22514c-0.47062,-0.66811 -1.26837,-1.00216 -2.39327,-1.00216c-0.89532,0 -1.80212,0.22473 -2.7204,0.67418c-0.91828,0.44945 -1.93987,1.13578 -3.06476,2.05899v14.97777h-2.58266v-19.24152h2.03169l0.37879,2.07721c2.22683,-1.84641 4.40774,-2.76961 6.54275,-2.76961z" data-paper-data="{&quot;elementType&quot;:&quot;letter&quot;,&quot;baseline&quot;:54.7,&quot;baselineProportion&quot;:1,&quot;fontSize&quot;:100}"></path><path d="M133.26505,442.55466c-0.8035,0.31583 -1.57255,0.4859 -2.30718,0.51019c-1.92839,0 -2.96145,-0.91106 -3.0992,-2.73317c-2.24979,1.84641 -4.27,2.76961 -6.06065,2.76961c-1.42333,0 -2.5884,-0.43123 -3.4952,-1.2937c-0.9068,-0.86247 -1.3602,-1.96181 -1.3602,-3.29803c0,-1.19045 0.31566,-2.18654 0.94698,-2.98827c0.63132,-0.80173 1.50942,-1.46984 2.63432,-2.00433c1.12489,-0.53449 2.62858,-1.08112 4.51105,-1.6399l2.78928,-0.83817v-1.6399c0,-3.03686 -1.05602,-4.55528 -3.16807,-4.55528c-1.17081,0 -2.23257,0.2551 -3.18528,0.76529c-0.95272,0.51019 -2.02596,1.48199 -3.21972,2.91538l-1.27411,-1.6399c2.38753,-2.8425 5.06202,-4.26375 8.02347,-4.26375c1.95135,0 3.34598,0.52841 4.18391,1.58524c0.83793,1.05683 1.2569,2.82428 1.2569,5.30235v9.9123c0,0.53449 0.08609,0.91713 0.25827,1.14793c0.17218,0.2308 0.4534,0.3462 0.84367,0.3462c0.41323,0 0.9068,-0.13362 1.48073,-0.40087l0.24105,2.04077M119.52528,438.3638c0,0.89891 0.24105,1.5488 0.72315,1.94966c0.4821,0.40087 1.12489,0.6013 1.92839,0.6013c0.84941,0 1.70456,-0.22473 2.56544,-0.67418c0.86089,-0.44945 1.88821,-1.13578 3.08198,-2.05899v-5.21125l-2.16944,0.6924c-2.27274,0.70455 -3.86252,1.39695 -4.76932,2.07721c-0.9068,0.68026 -1.3602,1.55487 -1.3602,2.62384z" data-paper-data="{&quot;elementType&quot;:&quot;letter&quot;,&quot;baseline&quot;:54.7,&quot;baselineProportion&quot;:0.9733096085409253,&quot;fontSize&quot;:100}"></path><path d="M145.17973,422.58429c1.46925,0 2.76058,0.38872 3.87399,1.16615c1.11341,0.77744 1.98004,1.90715 2.59988,3.38913c0.61984,1.48199 0.92976,3.24336 0.92976,5.28413c0,2.33231 -0.37879,4.30626 -1.13637,5.92187c-0.75758,1.61561 -1.80212,2.82428 -3.13363,3.62601c-1.33151,0.80173 -2.84667,1.2026 -4.54549,1.2026c-1.62995,0 -3.14511,-0.4616 -4.54549,-1.38481l-0.44766,0.80173h-1.48073v-29.19026h2.58266v11.26066c1.58403,-1.38481 3.35172,-2.07721 5.30307,-2.07721M143.63013,441.02408c2.135,0 3.71903,-0.77744 4.7521,-2.33231c1.03307,-1.55487 1.5496,-3.64423 1.5496,-6.26807c0,-2.64814 -0.47062,-4.57958 -1.41186,-5.79432c-0.94124,-1.21474 -2.08909,-1.82211 -3.44355,-1.82211c-1.01011,0 -1.89969,0.15792 -2.66875,0.47375c-0.76906,0.31583 -1.61273,0.85032 -2.53101,1.60346v13.11922c1.07898,0.68026 2.33014,1.02038 3.75347,1.02038z" data-paper-data="{&quot;elementType&quot;:&quot;letter&quot;,&quot;baseline&quot;:80,&quot;baselineProportion&quot;:0.9791921664626683,&quot;fontSize&quot;:100}"></path><path d="M172.28047,442.55466c-0.8035,0.31583 -1.57255,0.4859 -2.30718,0.51019c-1.92839,0 -2.96145,-0.91106 -3.0992,-2.73317c-2.24979,1.84641 -4.27,2.76961 -6.06065,2.76961c-1.42333,0 -2.5884,-0.43123 -3.4952,-1.2937c-0.9068,-0.86247 -1.3602,-1.96181 -1.3602,-3.29803c0,-1.19045 0.31566,-2.18654 0.94698,-2.98827c0.63132,-0.80173 1.50942,-1.46984 2.63432,-2.00433c1.12489,-0.53449 2.62858,-1.08112 4.51105,-1.6399l2.78928,-0.83817v-1.6399c0,-3.03686 -1.05602,-4.55528 -3.16807,-4.55528c-1.17081,0 -2.23257,0.2551 -3.18528,0.76529c-0.95272,0.51019 -2.02596,1.48199 -3.21972,2.91538l-1.27411,-1.6399c2.38753,-2.8425 5.06202,-4.26375 8.02347,-4.26375c1.95135,0 3.34598,0.52841 4.18391,1.58524c0.83793,1.05683 1.2569,2.82428 1.2569,5.30235v9.9123c0,0.53449 0.08609,0.91713 0.25827,1.14793c0.17218,0.2308 0.4534,0.3462 0.84367,0.3462c0.41323,0 0.9068,-0.13362 1.48073,-0.40087l0.24105,2.04077M158.5407,438.3638c0,0.89891 0.24105,1.5488 0.72315,1.94966c0.4821,0.40087 1.12489,0.6013 1.92839,0.6013c0.84941,0 1.70456,-0.22473 2.56544,-0.67418c0.86089,-0.44945 1.88821,-1.13578 3.08198,-2.05899v-5.21125l-2.16944,0.6924c-2.27274,0.70455 -3.86252,1.39695 -4.76932,2.07721c-0.9068,0.68026 -1.3602,1.55487 -1.3602,2.62384z" data-paper-data="{&quot;elementType&quot;:&quot;letter&quot;,&quot;baseline&quot;:54.7,&quot;baselineProportion&quot;:0.9733096085409253,&quot;fontSize&quot;:100}"></path></g><g data-paper-data="{&quot;baselineProportion&quot;:0.9768009768009768,&quot;fontSize&quot;:100,&quot;baseline&quot;:80,&quot;elementType&quot;:&quot;word&quot;}"><path d="M188.73924,417.77391c2.38753,0 4.42496,0.53449 6.1123,1.60346c1.68734,1.06897 2.95571,2.53881 3.80512,4.40952c0.84941,1.8707 1.27411,3.98436 1.27411,6.34096c0,2.42948 -0.4247,4.57958 -1.27411,6.45028c-0.84941,1.8707 -2.11204,3.33447 -3.78791,4.39129c-1.67586,1.05683 -3.71903,1.58524 -6.12952,1.58524h-7.9546v-24.78075h7.9546M188.73924,440.36812c2.70893,0 4.80949,-0.91713 6.3017,-2.75139c1.49221,-1.83426 2.23831,-4.31841 2.23831,-7.45244c0,-3.08545 -0.7461,-5.55745 -2.23831,-7.416c-1.49221,-1.85856 -3.59277,-2.78783 -6.3017,-2.78783h-5.26863v20.40767z" data-paper-data="{&quot;elementType&quot;:&quot;letter&quot;,&quot;baseline&quot;:68,&quot;baselineProportion&quot;:1,&quot;fontSize&quot;:100}"></path><path d="M212.15538,443.24706c-1.85952,0 -3.43781,-0.4616 -4.73488,-1.38481c-1.29707,-0.9232 -2.267,-2.16832 -2.9098,-3.73533c-0.6428,-1.56702 -0.96419,-3.28588 -0.96419,-5.15658c0,-1.91929 0.3214,-3.66245 0.96419,-5.22947c0.6428,-1.56702 1.61273,-2.81213 2.9098,-3.73533c1.29707,-0.9232 2.87536,-1.38481 4.73488,-1.38481c1.85952,0 3.43207,0.46768 4.71766,1.40303c1.28559,0.93535 2.24979,2.18654 2.89258,3.75355c0.6428,1.56702 0.96419,3.27373 0.96419,5.12014c0,1.8707 -0.3214,3.59564 -0.96419,5.1748c-0.6428,1.57917 -1.60699,2.83642 -2.89258,3.77178c-1.28559,0.93535 -2.85815,1.40303 -4.71766,1.40303M212.12095,441.06053c1.90543,0 3.37468,-0.74099 4.40774,-2.22298c1.03307,-1.48199 1.5496,-3.44987 1.5496,-5.90365c0,-2.42948 -0.51653,-4.39737 -1.5496,-5.90365c-1.03307,-1.50628 -2.50231,-2.25942 -4.40774,-2.25942c-1.88247,0 -3.34024,0.75314 -4.37331,2.25942c-1.03307,1.50628 -1.5496,3.47416 -1.5496,5.90365c0,2.45378 0.51079,4.42166 1.53238,5.90365c1.02159,1.48199 2.4851,2.22298 4.39053,2.22298z" data-paper-data="{&quot;elementType&quot;:&quot;letter&quot;,&quot;baseline&quot;:54.7,&quot;baselineProportion&quot;:0.9664310954063603,&quot;fontSize&quot;:100}"></path><path d="M249.20798,423.31314l-5.71629,19.53306h-2.30718l-5.02758,-15.85239l-5.06202,15.85239h-2.30718l-5.75073,-19.53306h2.68597l4.27,15.85239l5.06202,-15.85239h2.20387l5.13089,15.85239l4.20113,-15.85239z" data-paper-data="{&quot;elementType&quot;:&quot;letter&quot;,&quot;baseline&quot;:52.800000000000004,&quot;baselineProportion&quot;:0.9850746268656717,&quot;fontSize&quot;:100}"></path><path d="M262.1213,422.62074c1.95135,0 3.28859,0.53449 4.01174,1.60346c0.72315,1.06897 1.08472,2.6117 1.08472,4.62817v13.70229h-2.58266v-13.48364c0,-1.48199 -0.23531,-2.55703 -0.70593,-3.22514c-0.47062,-0.66811 -1.26837,-1.00216 -2.39327,-1.00216c-0.89532,0 -1.80212,0.22473 -2.7204,0.67418c-0.91828,0.44945 -1.93987,1.13578 -3.06476,2.05899v14.97777h-2.58266v-19.24152h2.03169l0.37879,2.07721c2.22683,-1.84641 4.40774,-2.76961 6.54275,-2.76961z" data-paper-data="{&quot;elementType&quot;:&quot;letter&quot;,&quot;baseline&quot;:54.7,&quot;baselineProportion&quot;:1,&quot;fontSize&quot;:100}"></path><path d="M273.65719,413.40084h2.58266v29.15382h-2.58266z" data-paper-data="{&quot;elementType&quot;:&quot;letter&quot;,&quot;baseline&quot;:80,&quot;baselineProportion&quot;:1,&quot;fontSize&quot;:100}"></path><path d="M289.84188,443.24706c-1.85952,0 -3.43781,-0.4616 -4.73488,-1.38481c-1.29707,-0.9232 -2.267,-2.16832 -2.9098,-3.73533c-0.6428,-1.56702 -0.96419,-3.28588 -0.96419,-5.15658c0,-1.91929 0.3214,-3.66245 0.96419,-5.22947c0.6428,-1.56702 1.61273,-2.81213 2.9098,-3.73533c1.29707,-0.9232 2.87536,-1.38481 4.73488,-1.38481c1.85952,0 3.43207,0.46768 4.71766,1.40303c1.28559,0.93535 2.24979,2.18654 2.89258,3.75355c0.6428,1.56702 0.96419,3.27373 0.96419,5.12014c0,1.8707 -0.3214,3.59564 -0.96419,5.1748c-0.6428,1.57917 -1.60699,2.83642 -2.89258,3.77178c-1.28559,0.93535 -2.85815,1.40303 -4.71766,1.40303M289.80744,441.06053c1.90543,0 3.37468,-0.74099 4.40774,-2.22298c1.03307,-1.48199 1.5496,-3.44987 1.5496,-5.90365c0,-2.42948 -0.51653,-4.39737 -1.5496,-5.90365c-1.03307,-1.50628 -2.50231,-2.25942 -4.40774,-2.25942c-1.88247,0 -3.34024,0.75314 -4.37331,2.25942c-1.03307,1.50628 -1.5496,3.47416 -1.5496,5.90365c0,2.45378 0.51079,4.42166 1.53238,5.90365c1.02159,1.48199 2.4851,2.22298 4.39053,2.22298z" data-paper-data="{&quot;elementType&quot;:&quot;letter&quot;,&quot;baseline&quot;:54.7,&quot;baselineProportion&quot;:0.9664310954063603,&quot;fontSize&quot;:100}"></path><path d="M318.14786,442.55466c-0.8035,0.31583 -1.57255,0.4859 -2.30718,0.51019c-1.92839,0 -2.96145,-0.91106 -3.0992,-2.73317c-2.24979,1.84641 -4.27,2.76961 -6.06065,2.76961c-1.42333,0 -2.5884,-0.43123 -3.4952,-1.2937c-0.9068,-0.86247 -1.3602,-1.96181 -1.3602,-3.29803c0,-1.19045 0.31566,-2.18654 0.94698,-2.98827c0.63132,-0.80173 1.50942,-1.46984 2.63432,-2.00433c1.12489,-0.53449 2.62858,-1.08112 4.51105,-1.6399l2.78928,-0.83817v-1.6399c0,-3.03686 -1.05602,-4.55528 -3.16807,-4.55528c-1.17081,0 -2.23257,0.2551 -3.18528,0.76529c-0.95272,0.51019 -2.02596,1.48199 -3.21972,2.91538l-1.27411,-1.6399c2.38753,-2.8425 5.06202,-4.26375 8.02347,-4.26375c1.95135,0 3.34598,0.52841 4.18391,1.58524c0.83793,1.05683 1.2569,2.82428 1.2569,5.30235v9.9123c0,0.53449 0.08609,0.91713 0.25827,1.14793c0.17218,0.2308 0.4534,0.3462 0.84367,0.3462c0.41323,0 0.9068,-0.13362 1.48073,-0.40087l0.24105,2.04077M304.40809,438.3638c0,0.89891 0.24105,1.5488 0.72315,1.94966c0.4821,0.40087 1.12489,0.6013 1.92839,0.6013c0.84941,0 1.70456,-0.22473 2.56544,-0.67418c0.86089,-0.44945 1.88821,-1.13578 3.08198,-2.05899v-5.21125l-2.16944,0.6924c-2.27274,0.70455 -3.86252,1.39695 -4.76932,2.07721c-0.9068,0.68026 -1.3602,1.55487 -1.3602,2.62384z" data-paper-data="{&quot;elementType&quot;:&quot;letter&quot;,&quot;baseline&quot;:54.7,&quot;baselineProportion&quot;:0.9733096085409253,&quot;fontSize&quot;:100}"></path><path d="M335.77884,413.40084v29.15382h-2.03169l-0.30992,-1.6399c-1.62995,1.55487 -3.47799,2.33231 -5.54412,2.33231c-1.44629,0 -2.72614,-0.38872 -3.83956,-1.16615c-1.11341,-0.77744 -1.98004,-1.91322 -2.59988,-3.40735c-0.61984,-1.49413 -0.92976,-3.27373 -0.92976,-5.33879c0,-3.52275 0.82645,-6.18911 2.47936,-7.99908c1.6529,-1.80997 3.85678,-2.71495 6.61162,-2.71495c1.30855,0 2.50231,0.2308 3.58129,0.6924v-9.9123h2.58266M323.17544,433.33476c0,2.67243 0.47062,4.62209 1.41186,5.84898c0.94124,1.22689 2.08909,1.84033 3.44355,1.84033c0.98715,0 1.86526,-0.16399 2.63432,-0.49197c0.76906,-0.32798 1.61273,-0.88069 2.53101,-1.65812v-13.41076c-0.94124,-0.4616 -2.10057,-0.6924 -3.47799,-0.6924c-2.20387,0 -3.8453,0.77136 -4.92428,2.31408c-1.07898,1.54272 -1.61847,3.62601 -1.61847,6.24985z" data-paper-data="{&quot;elementType&quot;:&quot;letter&quot;,&quot;baseline&quot;:80,&quot;baselineProportion&quot;:0.9768009768009768,&quot;fontSize&quot;:100}"></path></g><g data-paper-data="{&quot;baselineProportion&quot;:0.9728183118741058,&quot;fontSize&quot;:100,&quot;baseline&quot;:68,&quot;elementType&quot;:&quot;word&quot;}"><path d="M351.34228,431.33044h-4.37331v11.22422h-2.68597v-24.78075h7.61025c2.54823,0 4.49957,0.60737 5.85404,1.82211c1.35446,1.21474 2.03169,2.8425 2.03169,4.88326c0,1.77352 -0.47636,3.22514 -1.42907,4.35485c-0.95272,1.12971 -2.34735,1.85248 -4.18391,2.16832l7.81686,11.5522h-3.0992l-7.54138,-11.22422M346.96898,429.1439h4.92428c3.46651,0 5.19976,-1.53058 5.19976,-4.59173c0,-1.4334 -0.44766,-2.55703 -1.34298,-3.37091c-0.89532,-0.81388 -2.18092,-1.22082 -3.85678,-1.22082h-4.92428z" data-paper-data="{&quot;elementType&quot;:&quot;letter&quot;,&quot;baseline&quot;:68,&quot;baselineProportion&quot;:1,&quot;fontSize&quot;:100}"></path><path d="M373.69093,443.24706c-1.85952,0 -3.43781,-0.4616 -4.73488,-1.38481c-1.29707,-0.9232 -2.267,-2.16832 -2.9098,-3.73533c-0.6428,-1.56702 -0.96419,-3.28588 -0.96419,-5.15658c0,-1.91929 0.3214,-3.66245 0.96419,-5.22947c0.6428,-1.56702 1.61273,-2.81213 2.9098,-3.73533c1.29707,-0.9232 2.87536,-1.38481 4.73488,-1.38481c1.85952,0 3.43207,0.46768 4.71766,1.40303c1.28559,0.93535 2.24979,2.18654 2.89258,3.75355c0.6428,1.56702 0.96419,3.27373 0.96419,5.12014c0,1.8707 -0.3214,3.59564 -0.96419,5.1748c-0.6428,1.57917 -1.60699,2.83642 -2.89258,3.77178c-1.28559,0.93535 -2.85815,1.40303 -4.71766,1.40303M373.65649,441.06053c1.90543,0 3.37468,-0.74099 4.40774,-2.22298c1.03307,-1.48199 1.5496,-3.44987 1.5496,-5.90365c0,-2.42948 -0.51653,-4.39737 -1.5496,-5.90365c-1.03307,-1.50628 -2.50231,-2.25942 -4.40774,-2.25942c-1.88247,0 -3.34024,0.75314 -4.37331,2.25942c-1.03307,1.50628 -1.5496,3.47416 -1.5496,5.90365c0,2.45378 0.51079,4.42166 1.53238,5.90365c1.02159,1.48199 2.4851,2.22298 4.39053,2.22298z" data-paper-data="{&quot;elementType&quot;:&quot;letter&quot;,&quot;baseline&quot;:54.7,&quot;baselineProportion&quot;:0.9664310954063603,&quot;fontSize&quot;:100}"></path><path d="M401.10159,423.31314v19.24152h-2.03169l-0.37879,-2.11365c-2.22683,1.8707 -4.39627,2.80606 -6.50831,2.80606c-1.95135,0 -3.28859,-0.53449 -4.01174,-1.60346c-0.72315,-1.06897 -1.08472,-2.62384 -1.08472,-4.66461v-13.66585h2.58266v13.48364c0,1.48199 0.23531,2.55096 0.70593,3.20692c0.47062,0.65596 1.26837,0.98394 2.39327,0.98394c0.89532,0 1.80786,-0.21865 2.73762,-0.65596c0.92976,-0.43731 1.93413,-1.11756 3.01311,-2.04077v-14.97777z" data-paper-data="{&quot;elementType&quot;:&quot;letter&quot;,&quot;baseline&quot;:52.800000000000004,&quot;baselineProportion&quot;:0.9652650822669103,&quot;fontSize&quot;:100}"></path><path d="M417.59619,441.93514c-1.19376,0.75314 -2.39901,1.12971 -3.61573,1.12971c-1.88247,0 -3.27711,-0.56486 -4.18391,-1.69457c-0.9068,-1.12971 -1.3602,-2.75139 -1.3602,-4.86504v-11.11489h-2.92702v-1.16615l3.13363,-0.83817l0.79202,-4.55528h1.58403v4.4824h5.50968v2.07721h-5.50968v10.78691c0,1.62775 0.24679,2.81213 0.74036,3.55312c0.49358,0.74099 1.30281,1.11149 2.4277,1.11149c0.52801,0 0.99289,-0.07288 1.39464,-0.21865c0.40175,-0.14577 0.92402,-0.37657 1.56682,-0.6924z" data-paper-data="{&quot;elementType&quot;:&quot;letter&quot;,&quot;baseline&quot;:65.10000000000001,&quot;baselineProportion&quot;:0.9789473684210526,&quot;fontSize&quot;:100}"></path><path d="M435.88144,439.71216c-1.88247,2.3566 -4.15522,3.5349 -6.81823,3.5349c-1.85952,0 -3.43207,-0.4616 -4.71766,-1.38481c-1.28559,-0.9232 -2.24979,-2.16832 -2.89258,-3.73533c-0.6428,-1.56702 -0.96419,-3.28588 -0.96419,-5.15658c0,-1.91929 0.3214,-3.66245 0.96419,-5.22947c0.6428,-1.56702 1.60699,-2.81213 2.89258,-3.73533c1.28559,-0.9232 2.85815,-1.38481 4.71766,-1.38481c1.26264,0 2.41049,0.27332 3.44355,0.81995c1.03307,0.54663 1.84804,1.34836 2.44492,2.40519c0.59688,1.05683 0.89532,2.30194 0.89532,3.73533c0,0.60737 -0.06887,1.27548 -0.20661,2.00433h-12.46565c-0.04591,0.58308 -0.06887,1.02038 -0.06887,1.31192c0,2.45378 0.51653,4.42774 1.5496,5.92187c1.03307,1.49413 2.51379,2.2412 4.44218,2.2412c1.17081,0 2.21535,-0.27332 3.13363,-0.81995c0.91828,-0.54663 1.77917,-1.2937 2.58266,-2.2412l1.0675,1.71279M429.02878,424.69795c-1.42333,0 -2.59988,0.43123 -3.52964,1.2937c-0.92976,0.86247 -1.58977,2.03469 -1.98004,3.51668h9.74525v-0.2551c0,-1.45769 -0.41897,-2.58133 -1.2569,-3.37091c-0.83793,-0.78958 -1.83082,-1.18437 -2.97867,-1.18437z" data-paper-data="{&quot;elementType&quot;:&quot;letter&quot;,&quot;baseline&quot;:54.7,&quot;baselineProportion&quot;:0.9664310954063603,&quot;fontSize&quot;:100}"></path><path d="M450,425.1717c-1.07898,0 -2.12352,0.21865 -3.13363,0.65596c-1.01011,0.43731 -2.12352,1.25118 -3.34024,2.44163v14.28537h-2.58266v-19.24152h2.03169l0.4821,2.62384c1.12489,-1.21474 2.20961,-2.07114 3.25416,-2.56918c1.04454,-0.49804 2.14074,-0.74707 3.28859,-0.74707z" data-paper-data="{&quot;elementType&quot;:&quot;letter&quot;,&quot;baseline&quot;:54.7,&quot;baselineProportion&quot;:1,&quot;fontSize&quot;:100}"></path></g></g></g></g><g clip-path="url(#clip-1)" data-paper-data="{&quot;elementType&quot;:&quot;emblem&quot;}" fill="#ffffff" stroke-width="1"><path d="M213.37216,140.64021c33.77664,27.88363 32.11776,53.84509 11.00736,100.93009c-4.992,-6.38826 -31.09056,-31.15701 -20.03328,-66.02831c9.11616,-28.74515 9.02592,-34.90178 9.02592,-34.90178z"></path><path d="M230.76736,247.65377c0,0 53.32992,-34.30847 99.41184,6.65241c0,0 -45.81312,24.6834 -69.78816,8.08489c-23.96928,-16.60461 -29.62368,-14.7373 -29.62368,-14.7373z"></path><path d="M241.2352,226.04462c-4.85376,7.47126 -31.68,37.72204 -71.54496,77.16103l2.15232,8.14788c0,0 46.464,-57.97389 71.26464,-81.40972l-0.01344,-0.05283c3.43104,-0.33323 10.54464,-1.02407 25.33056,-2.46265c34.752,-3.377 38.8032,-35.98681 50.0064,-59.13004c-59.42976,-1.7393 -63.11808,13.8961 -77.19552,57.74632z"></path></g></g></svg>